<svg xmlns="http://www.w3.org/2000/svg" viewBox="0 0 112 126" role="img" aria-label="Syclover green three-leaf clover">
  <defs>
    <linearGradient id="leafGreen" x1="0" y1="0" x2="1" y2="1">
      <stop offset="0" stop-color="#63ff9a"/>
      <stop offset=".55" stop-color="#38ef7d"/>
      <stop offset="1" stop-color="#16ad59"/>
    </linearGradient>
    <filter id="glow" x="-30%" y="-30%" width="160%" height="170%">
      <feGaussianBlur stdDeviation="2.5" result="blur"/>
      <feMerge><feMergeNode in="blur"/><feMergeNode in="SourceGraphic"/></feMerge>
    </filter>
    <path id="leaf" d="M54 47C42 40 31 29 32 17C33 5 42 1 54 2C66 1 75 5 76 17C77 29 66 40 54 47Z"/>
  </defs>
  <g transform="translate(2 2)" filter="url(#glow)">
    <path d="M54 47C62 57 73 68 79 80C84 90 87 102 90 118" fill="none" stroke="#38ef7d" stroke-width="4.5" stroke-linecap="round"/>
    <g transform="rotate(75 54 47)">
      <use href="#leaf" fill="url(#leafGreen)" stroke="#0b773b" stroke-width="1.5"/>
      <use href="#leaf" transform="rotate(120 54 47)" fill="url(#leafGreen)" stroke="#0b773b" stroke-width="1.5"/>
      <use href="#leaf" transform="rotate(240 54 47)" fill="url(#leafGreen)" stroke="#0b773b" stroke-width="1.5"/>
      <path d="M54 46L54 20M52 48L31 61M56 48L76 61" fill="none" stroke="#0d8f48" stroke-width="1.5" stroke-linecap="round" opacity=".75"/>
    </g>
  </g>
</svg>
